<?xml version="1.0" encoding="UTF-8"?>
<svg width="18px" height="18px" viewBox="0 0 18 18" version="1.1" xmlns="http://www.w3.org/2000/svg" xmlns:xlink="http://www.w3.org/1999/xlink">
    <!-- Generator: sketchtool 55.2 (78181) - https://sketchapp.com -->
    <title>F0E2F6B7-B921-48B8-A2D2-4828B5F05BB4</title>
    <desc>Created with sketchtool.</desc>
    <g id="Manager" stroke="none" stroke-width="1" fill="none" fill-rule="evenodd" opacity="0.85">
        <g id="Mission-Building" transform="translate(-470.000000, -550.000000)" fill="#ABABAB">
            <g id="Group-2" transform="translate(345.000000, 516.000000)">
                <g id="Group-28" transform="translate(0.000000, 18.000000)">
                    <g id="ico-/-24-/-actions-/-calendar_month" transform="translate(125.000000, 16.000000)">
                        <path d="M14.25,3 L13.5,3 L13.5,1.875 C13.5,1.66789322 13.3321068,1.5 13.125,1.5 L12.375,1.5 C12.1678932,1.5 12,1.66789322 12,1.875 L12,3 L6,3 L6,1.875 C6,1.66789322 5.83210678,1.5 5.625,1.5 L4.875,1.5 C4.66789322,1.5 4.5,1.66789322 4.5,1.875 L4.5,3 L3.75,3 C2.92157288,3 2.25,3.67157288 2.25,4.5 L2.25,14.25 C2.25,15.0784271 2.92157288,15.75 3.75,15.75 L14.25,15.75 C15.0784271,15.75 15.75,15.0784271 15.75,14.25 L15.75,4.5 C15.75,3.67157288 15.0784271,3 14.25,3 Z M14.25,14.25 L3.75,14.25 L3.75,6 L14.25,6 L14.25,14.25 Z M8.625,9 L9.375,9 C9.58210678,9 9.75,8.83210678 9.75,8.625 L9.75,7.875 C9.75,7.66789322 9.58210678,7.5 9.375,7.5 L8.625,7.5 C8.41789322,7.5 8.25,7.66789322 8.25,7.875 L8.25,8.625 C8.25,8.83210678 8.41789322,9 8.625,9 Z M11.625,9 L12.375,9 C12.5821068,9 12.75,8.83210678 12.75,8.625 L12.75,7.875 C12.75,7.66789322 12.5821068,7.5 12.375,7.5 L11.625,7.5 C11.4178932,7.5 11.25,7.66789322 11.25,7.875 L11.25,8.625 C11.25,8.83210678 11.4178932,9 11.625,9 Z M5.625,9 L6.375,9 C6.58210678,9 6.75,8.83210678 6.75,8.625 L6.75,7.875 C6.75,7.66789322 6.58210678,7.5 6.375,7.5 L5.625,7.5 C5.41789322,7.5 5.25,7.66789322 5.25,7.875 L5.25,8.625 C5.25,8.83210678 5.41789322,9 5.625,9 Z M8.625,12 L9.375,12 C9.58210678,12 9.75,11.8321068 9.75,11.625 L9.75,10.875 C9.75,10.6678932 9.58210678,10.5 9.375,10.5 L8.625,10.5 C8.41789322,10.5 8.25,10.6678932 8.25,10.875 L8.25,11.625 C8.25,11.8321068 8.41789322,12 8.625,12 Z M5.625,12 L6.375,12 C6.58210678,12 6.75,11.8321068 6.75,11.625 L6.75,10.875 C6.75,10.6678932 6.58210678,10.5 6.375,10.5 L5.625,10.5 C5.41789322,10.5 5.25,10.6678932 5.25,10.875 L5.25,11.625 C5.25,11.8321068 5.41789322,12 5.625,12 Z" id="Icon-color"></path>
                    </g>
                </g>
            </g>
        </g>
    </g>
</svg>