<?xml version="1.0" encoding="UTF-8"?>
<svg width="18px" height="18px" viewBox="0 0 18 18" version="1.1" xmlns="http://www.w3.org/2000/svg" xmlns:xlink="http://www.w3.org/1999/xlink">
    <!-- Generator: sketchtool 63.1 (101010) - https://sketch.com -->
    <title>921AA94D-FB28-4195-9B14-0ACF30DF23E8</title>
    <desc>Created with sketchtool.</desc>
    <g id="Manager" stroke="none" stroke-width="1" fill="none" fill-rule="evenodd">
        <g id="Mission-Building" transform="translate(-49.000000, -484.000000)">
            <g id="Navigation-/-menu">
                <g id="image-24px" transform="translate(46.000000, 481.000000)">
                    <polygon id="Path" points="0 0 24 0 24 24 0 24"></polygon>
                    <path d="M21,19 L21,5 C21,3.9 20.1,3 19,3 L5,3 C3.9,3 3,3.9 3,5 L3,19 C3,20.1 3.9,21 5,21 L19,21 C20.1,21 21,20.1 21,19 Z M8.5,13.5 L11,16.51 L14.5,12 L19,18 L5,18 L8.5,13.5 Z" id="Shape" fill="#ABABAB"></path>
                </g>
            </g>
        </g>
    </g>
</svg>