<svg xmlns="http://www.w3.org/2000/svg" width="12" height="12" viewBox="0 0 12 12">
    <g fill="none" fill-opacity=".5" fill-rule="evenodd">
        <g fill="#282C34">
            <g>
                <g>
                    <g>
                        <path d="M140.292 8.472h3.998c.553 0 1.002.444 1.002 1 0 .553-.455 1-1.002 1h-3.998v3.998c0 .553-.444 1.002-1 1.002-.552 0-1-.456-1-1.002v-3.998h-3.997c-.554 0-1.003-.444-1.003-1 0-.552.456-1 1.003-1h3.997V4.475c0-.554.444-1.003 1-1.003.553 0 1 .456 1 1.003v3.997z" transform="translate(-494 -659) translate(345 620) translate(0 21) translate(15.708 14.528)"/>
                    </g>
                </g>
            </g>
        </g>
    </g>
</svg>
