<?xml version="1.0" encoding="UTF-8"?>
<svg width="40px" height="40px" viewBox="0 0 40 40" version="1.1" xmlns="http://www.w3.org/2000/svg" xmlns:xlink="http://www.w3.org/1999/xlink">
    <!-- Generator: sketchtool 55.2 (78181) - https://sketchapp.com -->
    <title>96CB0BD6-A64E-4518-AE35-268B2F0B1C36</title>
    <desc>Created with sketchtool.</desc>
    <defs>
        <circle id="path-1" cx="20" cy="20" r="20"></circle>
    </defs>
    <g id="Manager" stroke="none" stroke-width="1" fill="none" fill-rule="evenodd">
        <g id="Money-1" transform="translate(-407.000000, -413.000000)">
            <g id="Group-2-Copy" transform="translate(407.000000, 413.000000)">
                <mask id="mask-2" fill="white">
                    <use xlink:href="#path-1"></use>
                </mask>
                <use id="Oval" fill="#0E36E6" opacity="0.57047061" xlink:href="#path-1"></use>
                <rect id="Rectangle" fill="#0E36E6" mask="url(#mask-2)" x="0" y="26" width="42" height="14"></rect>
                <path d="M24.5876715,20.9744365 C22.5398007,20.5495716 21,18.722875 21,16.5338346 C21,14.0298669 23.0147186,12 25.5,12 C27.9852814,12 30,14.0298669 30,16.5338346 C30,18.6350167 28.5813203,20.4023571 26.6563836,20.9165727 L27.5,29.1278195 L23.75,29.1278195 L24.5876715,20.9744365 Z" id="Combined-Shape" fill="#FFFFFF" mask="url(#mask-2)"></path>
                <path d="M13.5876715,20.9744365 C11.5398007,20.5495716 10,18.722875 10,16.5338346 C10,14.0298669 12.0147186,12 14.5,12 C16.9852814,12 19,14.0298669 19,16.5338346 C19,18.6350167 17.5813203,20.4023571 15.6563836,20.9165727 L16.5,29.1278195 L12.75,29.1278195 L13.5876715,20.9744365 Z" id="Combined-Shape-Copy" fill="#FFFFFF" mask="url(#mask-2)"></path>
            </g>
        </g>
    </g>
</svg>