<?xml version="1.0" encoding="UTF-8"?>
<svg width="401px" height="91px" viewBox="0 0 401 91" version="1.1" xmlns="http://www.w3.org/2000/svg" xmlns:xlink="http://www.w3.org/1999/xlink">
    <!-- Generator: sketchtool 55.2 (78181) - https://sketchapp.com -->
    <title>D6118FEF-B17D-4418-84FA-22BCFD3E7215</title>
    <desc>Created with sketchtool.</desc>
    <defs>
        <rect id="path-1" x="0" y="0" width="401" height="91"></rect>
    </defs>
    <g id="Manager" stroke="none" stroke-width="1" fill="none" fill-rule="evenodd">
        <g id="Money-2" transform="translate(-681.000000, -330.000000)">
            <g id="Group-3" transform="translate(681.000000, 330.000000)">
                <mask id="mask-2" fill="white">
                    <use xlink:href="#path-1"></use>
                </mask>
                <use id="Container" fill-opacity="0.3" fill="#D3E2F6" transform="translate(200.500000, 45.500000) scale(1, -1) translate(-200.500000, -45.500000) " xlink:href="#path-1"></use>
                <g id="Group" mask="url(#mask-2)" fill-rule="nonzero">
                    <g transform="translate(344.000000, -29.000000)" id="Path">
                        <path d="M71.9738995,37.4703793 C71.1805954,57.3331187 54.4339458,72.7808166 34.5636612,71.9694463 C31.8485779,71.8566461 29.2167915,71.448982 26.6960677,70.7741594 C23.5288011,69.929147 20.5360613,68.6606389 17.7852793,67.0418563 C15.3260366,65.5952425 13.0591701,63.8656386 11.0243451,61.9025184 C10.4016014,61.302896 9.80265678,60.6815052 9.22552804,60.0363669 C6.68893817,57.2124026 4.59461533,53.9906691 3.04965558,50.4819875 C2.74621676,49.7972701 2.4645938,49.1026581 2.20478671,48.3961723 C0.618178499,44.0860152 -0.165209306,39.3998573 0.0291502002,34.5296569 C0.0469995426,34.0843927 0.0747651863,33.6391285 0.112447131,33.1938644 C1.58005973,13.9782422 18.0212873,-0.762969889 37.4393886,0.0305897902 C42.2190458,0.224527069 46.7428625,1.3446138 50.8462279,3.20482851 C51.6375488,3.56499774 52.4149868,3.95089334 53.1765588,4.36647323 C56.4985197,6.17523519 59.4972092,8.48862987 62.0734643,11.1978149 C62.64266,11.7954584 63.1900398,12.4109124 63.7156038,13.0461559 C65.5878015,15.3041399 67.1882925,17.7916824 68.4694786,20.4573305 C69.7883467,23.2060945 70.7700606,26.142859 71.3590889,29.2141923 C71.7874731,31.4563447 72.0095982,33.7697394 72,36.1326078 C72.0016652,36.5798509 71.9917489,37.0251151 71.9738995,37.4703793 Z" fill="#FDD462"></path>
                        <path d="M63.9770168,36.6643479 C63.9593386,37.1014721 63.9298748,37.5385963 63.8964825,37.9698399 C62.6059699,53.0398427 49.6281663,64.6010909 34.3620107,63.9757878 C19.0978194,63.3524448 7.08446278,50.7718935 7,35.6430848 C7.00196425,35.209881 7.007857,34.7727568 7.02553526,34.3356326 C7.6521312,18.6324858 20.9383222,6.38124786 36.6385771,7.02419283 C52.3407963,7.6651776 64.6036127,20.9612012 63.9770168,36.6643479 Z" fill="#F37E00"></path>
                        <path d="M64,38.6764062 C62.7071394,53.9172097 49.7037561,65.6059883 34.4117931,64.9756625 C34.0693917,64.9598052 33.7309259,64.9380015 33.3924601,64.9122335 C29.9861562,64.6505888 26.7549886,63.7883506 23.7953808,62.4325553 C20.835773,61.0747779 18.1496927,59.2254256 15.8374991,56.9875706 C15.2491197,56.4206738 14.6882897,55.829991 14.1451702,55.2115581 C11.6971967,52.4028419 9.77856798,49.1203903 8.55261341,45.5207936 C8.25547193,44.6585554 7.99965477,43.7745134 7.78712974,42.8805607 C7.28139888,40.7715459 7.01377477,38.5753162 7,36.3255682 C8.2928606,21.0867468 21.294276,9.39400392 36.586239,10.0243298 C38.5206104,10.103616 40.4038183,10.3791358 42.2201201,10.8290854 C43.1449976,11.0550513 44.0541324,11.3305711 44.943589,11.6496983 C48.5722571,12.9460289 51.856556,14.9599002 54.6370918,17.5188646 C55.2372782,18.0699042 55.8177864,18.648694 56.370745,19.2552339 C58.5235448,21.5981433 60.2945868,24.299823 61.5835117,27.2532366 C62.8409515,30.1352926 63.6438238,33.2492609 63.9055444,36.5099088 C63.9645792,37.2234852 63.9960644,37.9489546 64,38.6764062 Z" fill="#F7A219"></path>
                        <path d="M38.7385039,51.1890196 L38.5511981,56 L32.580826,55.7507781 L32.7603274,51.1551255 C28.5361916,50.7184886 24.4759484,49.3766777 22,47.6660183 L25.5080814,40.3428808 C28.2357219,42.1512352 31.9194025,43.3913635 35.1796939,43.5269403 C38.0146451,43.6465668 39.0545824,43.0803346 39.0955556,42.0415775 C39.2457904,38.2254911 22.7414188,40.6180218 23.1823678,29.3033457 C23.3735758,24.4046392 27.0065277,20.4310445 33.9875706,19.725248 L34.1729253,15 L40.1413462,15.2492219 L39.9618448,19.8867438 C43.0816569,20.3213869 46.0980606,21.2744116 48.4569429,22.7617681 L45.1615316,30.0490177 C42.3012161,28.4101342 39.5774777,27.5587921 36.9942187,27.4491344 C34.0734191,27.3275141 33.1076236,28.1549309 33.0666504,29.1956818 C32.92422,32.8383097 49.4266405,30.4896421 48.9915448,41.6747228 C48.8081412,46.3561078 45.3468863,50.2918207 38.7385039,51.1890196 Z" fill="#FDD462"></path>
                    </g>
                </g>
                <g id="Group-Copy-4" mask="url(#mask-2)" fill-rule="nonzero">
                    <g transform="translate(-28.000000, 42.000000)" id="Path">
                        <path d="M71.9738995,37.4703793 C71.1805954,57.3331187 54.4339458,72.7808166 34.5636612,71.9694463 C31.8485779,71.8566461 29.2167915,71.448982 26.6960677,70.7741594 C23.5288011,69.929147 20.5360613,68.6606389 17.7852793,67.0418563 C15.3260366,65.5952425 13.0591701,63.8656386 11.0243451,61.9025184 C10.4016014,61.302896 9.80265678,60.6815052 9.22552804,60.0363669 C6.68893817,57.2124026 4.59461533,53.9906691 3.04965558,50.4819875 C2.74621676,49.7972701 2.4645938,49.1026581 2.20478671,48.3961723 C0.618178499,44.0860152 -0.165209306,39.3998573 0.0291502002,34.5296569 C0.0469995426,34.0843927 0.0747651863,33.6391285 0.112447131,33.1938644 C1.58005973,13.9782422 18.0212873,-0.762969889 37.4393886,0.0305897902 C42.2190458,0.224527069 46.7428625,1.3446138 50.8462279,3.20482851 C51.6375488,3.56499774 52.4149868,3.95089334 53.1765588,4.36647323 C56.4985197,6.17523519 59.4972092,8.48862987 62.0734643,11.1978149 C62.64266,11.7954584 63.1900398,12.4109124 63.7156038,13.0461559 C65.5878015,15.3041399 67.1882925,17.7916824 68.4694786,20.4573305 C69.7883467,23.2060945 70.7700606,26.142859 71.3590889,29.2141923 C71.7874731,31.4563447 72.0095982,33.7697394 72,36.1326078 C72.0016652,36.5798509 71.9917489,37.0251151 71.9738995,37.4703793 Z" fill="#FDD462"></path>
                        <path d="M63.9770168,36.6643479 C63.9593386,37.1014721 63.9298748,37.5385963 63.8964825,37.9698399 C62.6059699,53.0398427 49.6281663,64.6010909 34.3620107,63.9757878 C19.0978194,63.3524448 7.08446278,50.7718935 7,35.6430848 C7.00196425,35.209881 7.007857,34.7727568 7.02553526,34.3356326 C7.6521312,18.6324858 20.9383222,6.38124786 36.6385771,7.02419283 C52.3407963,7.6651776 64.6036127,20.9612012 63.9770168,36.6643479 Z" fill="#F37E00"></path>
                        <path d="M64,38.6764062 C62.7071394,53.9172097 49.7037561,65.6059883 34.4117931,64.9756625 C34.0693917,64.9598052 33.7309259,64.9380015 33.3924601,64.9122335 C29.9861562,64.6505888 26.7549886,63.7883506 23.7953808,62.4325553 C20.835773,61.0747779 18.1496927,59.2254256 15.8374991,56.9875706 C15.2491197,56.4206738 14.6882897,55.829991 14.1451702,55.2115581 C11.6971967,52.4028419 9.77856798,49.1203903 8.55261341,45.5207936 C8.25547193,44.6585554 7.99965477,43.7745134 7.78712974,42.8805607 C7.28139888,40.7715459 7.01377477,38.5753162 7,36.3255682 C8.2928606,21.0867468 21.294276,9.39400392 36.586239,10.0243298 C38.5206104,10.103616 40.4038183,10.3791358 42.2201201,10.8290854 C43.1449976,11.0550513 44.0541324,11.3305711 44.943589,11.6496983 C48.5722571,12.9460289 51.856556,14.9599002 54.6370918,17.5188646 C55.2372782,18.0699042 55.8177864,18.648694 56.370745,19.2552339 C58.5235448,21.5981433 60.2945868,24.299823 61.5835117,27.2532366 C62.8409515,30.1352926 63.6438238,33.2492609 63.9055444,36.5099088 C63.9645792,37.2234852 63.9960644,37.9489546 64,38.6764062 Z" fill="#F7A219"></path>
                        <path d="M38.7385039,51.1890196 L38.5511981,56 L32.580826,55.7507781 L32.7603274,51.1551255 C28.5361916,50.7184886 24.4759484,49.3766777 22,47.6660183 L25.5080814,40.3428808 C28.2357219,42.1512352 31.9194025,43.3913635 35.1796939,43.5269403 C38.0146451,43.6465668 39.0545824,43.0803346 39.0955556,42.0415775 C39.2457904,38.2254911 22.7414188,40.6180218 23.1823678,29.3033457 C23.3735758,24.4046392 27.0065277,20.4310445 33.9875706,19.725248 L34.1729253,15 L40.1413462,15.2492219 L39.9618448,19.8867438 C43.0816569,20.3213869 46.0980606,21.2744116 48.4569429,22.7617681 L45.1615316,30.0490177 C42.3012161,28.4101342 39.5774777,27.5587921 36.9942187,27.4491344 C34.0734191,27.3275141 33.1076236,28.1549309 33.0666504,29.1956818 C32.92422,32.8383097 49.4266405,30.4896421 48.9915448,41.6747228 C48.8081412,46.3561078 45.3468863,50.2918207 38.7385039,51.1890196 Z" fill="#FDD462"></path>
                    </g>
                </g>
            </g>
        </g>
    </g>
</svg>