<svg xmlns="http://www.w3.org/2000/svg" xmlns:xlink="http://www.w3.org/1999/xlink" width="98" height="98" viewBox="0 0 98 98">
    <defs>
        <linearGradient id="t8cw6sfy8a" x1="50%" x2="50%" y1="0%" y2="100%">
            <stop offset="0%" stop-color="#FFDE22"/>
            <stop offset="100%" stop-color="#FF8500"/>
        </linearGradient>
        <linearGradient id="4ip1a23b1b" x1="50%" x2="50%" y1="0%" y2="100%">
            <stop offset="0%" stop-color="#2066F4"/>
            <stop offset="100%" stop-color="#0A1E79"/>
        </linearGradient>
        <ellipse id="grpapetzud" cx="23.25" cy="28.9" rx="4.5" ry="4.534"/>
        <ellipse id="bu4q37ln0f" cx="45.625" cy="28.9" rx="4.5" ry="4.534"/>
        <filter id="4eilwa459c" width="173.6%" height="173.1%" x="-36.8%" y="-36.5%" filterUnits="objectBoundingBox">
            <feMorphology in="SourceAlpha" operator="dilate" radius="1.313" result="shadowSpreadOuter1"/>
            <feOffset in="shadowSpreadOuter1" result="shadowOffsetOuter1"/>
            <feMorphology in="SourceAlpha" radius="1.5" result="shadowInner"/>
            <feOffset in="shadowInner" result="shadowInner"/>
            <feComposite in="shadowOffsetOuter1" in2="shadowInner" operator="out" result="shadowOffsetOuter1"/>
            <feGaussianBlur in="shadowOffsetOuter1" result="shadowBlurOuter1" stdDeviation=".5"/>
            <feColorMatrix in="shadowBlurOuter1" values="0 0 0 0 0.266666667 0 0 0 0 0.843137255 0 0 0 0 0.71372549 0 0 0 0.346973339 0"/>
        </filter>
        <filter id="4tp0couhfe" width="173.6%" height="173.1%" x="-36.8%" y="-36.5%" filterUnits="objectBoundingBox">
            <feMorphology in="SourceAlpha" operator="dilate" radius="1.313" result="shadowSpreadOuter1"/>
            <feOffset in="shadowSpreadOuter1" result="shadowOffsetOuter1"/>
            <feMorphology in="SourceAlpha" radius="1.5" result="shadowInner"/>
            <feOffset in="shadowInner" result="shadowInner"/>
            <feComposite in="shadowOffsetOuter1" in2="shadowInner" operator="out" result="shadowOffsetOuter1"/>
            <feGaussianBlur in="shadowOffsetOuter1" result="shadowBlurOuter1" stdDeviation=".5"/>
            <feColorMatrix in="shadowBlurOuter1" values="0 0 0 0 0.266666667 0 0 0 0 0.843137255 0 0 0 0 0.71372549 0 0 0 0.346973339 0"/>
        </filter>
    </defs>
    <g fill="none" fill-rule="evenodd">
        <g>
            <g transform="translate(-427 -1796) translate(427 1796)">
                <circle cx="49" cy="49" r="49" fill="url(#t8cw6sfy8a)" opacity=".8"/>
                <g>
                    <path fill="#FFF" d="M11.733 45.91c-2.186-1.932-3.704-4.39-4.363-7.178-.195.835-.36 1.706-.497 2.612-.057.382-.2.746-.417 1.065-.8 1.174-2.4 1.478-3.575.678C-.43 40.9.567 33.673 5.875 21.405c.356-.824.918-1.542 1.63-2.087.826-.63 1.778-.978 2.741-1.06C12.39 8.443 20.299.532 28.024.532h12.739c7.732 0 15.649 7.926 17.784 17.756 1.331-.178 2.73.151 3.882 1.031.713.545 1.275 1.263 1.631 2.087 5.308 12.268 6.306 19.495 2.994 21.682-1.175.8-2.775.496-3.575-.678-.217-.32-.36-.683-.417-1.065-.294-1.949-.721-3.732-1.283-5.35-.126 3.884-1.819 7.314-4.652 9.852l3.291 2.688c.784.641 1.315 1.54 1.495 2.537.419 2.312-1.116 4.526-3.428 4.945l-10.707 1.94c-.056.01-.113.02-.17.028-2.932.435-5.662-1.59-6.097-4.523l-.454-3.058H27.881l-.453 3.058c-.435 2.933-3.165 4.958-6.098 4.523l-.17-.028-10.706-1.94c-2.313-.419-3.847-2.633-3.428-4.945.18-.996.71-1.896 1.495-2.537l3.212-2.623z" transform="translate(14 22)"/>
                    <path fill="url(#4ip1a23b1b)" d="M29.482 13.629h9.823c6.014 0 12.173 5.029 13.756 11.233l2.206 8.64c1.583 6.205-4.459 11.234-13.494 11.234H27.014c-9.035 0-15.077-5.03-13.493-11.233l2.205-8.641c1.583-6.204 7.742-11.233 13.756-11.233z" transform="translate(14 22)"/>
                    <g transform="translate(14 22)">
                        <use fill="#000" filter="url(#4eilwa459c)" xlink:href="#grpapetzud"/>
                        <use stroke="#44D7B6" stroke-width="1.625" xlink:href="#grpapetzud"/>
                    </g>
                    <g transform="translate(14 22)">
                        <use fill="#000" filter="url(#4tp0couhfe)" xlink:href="#bu4q37ln0f"/>
                        <use stroke="#44D7B6" stroke-width="1.625" xlink:href="#bu4q37ln0f"/>
                    </g>
                    <path stroke="#44D7B6" stroke-linecap="round" stroke-width="1.25" d="M29.653 37.418h9.776" transform="translate(14 22)"/>
                </g>
                <path stroke="#FFF" stroke-linecap="round" stroke-linejoin="round" stroke-width="2" d="M40 23.531L42.723 15.531 48.394 20.469 54.296 15.531 57.019 23.531z"/>
            </g>
        </g>
    </g>
</svg>
